# xmcd
#
# Track frame offsets:
# 150
# 17518
# 38713
# 55253
# 78085
# 98830
# 125058
# 143590
# 164848
# 189260
# 208638
# 233230
# 249203
# 266233
#
# Disc length: 3891 seconds
#
#
# Revision: 0
# Processed by: cddbd v1.5PL3 Copyright (c) Steve Scherf et al.
# Submitted via: FreeRIP 2.70 
#
DISCID=b80f310e
DTITLE=Various artists  - R&B hot nits 7
DYEAR=1900
DGENRE=blues 
TTITLE0=Everyday People/ Aretha Franklin
TTITLE1=Let The Beat Hit'em - Lisa Lisa and the Cult Jam
TTITLE2=If You're Serious - Riff
TTITLE3=Summer Breeze - Nicki Richards
TTITLE4=Don't want To Be A fool - Luther vandross
TTITLE5=Why Can't ou Come Home - Ex-Girlfriend
TTITLE6=Long Hot Summer Night - J.T. Taylor
TTITLE7=So Much Love - B. Angie B.
TTITLE8=Addictive Love - BEbe and Cece Winans
TTITLE9=Now That We Found Love - Heavy D. and the Boyz
TTITLE10=Always - Pebbles
TTITLE11=Turn It up - Oaktowns 3-5-7
TTITLE12=All About You - Pretty in Pink
TTITLE13=Jealous girl - Another bad Creation
EXTD=
EXTT0=
EXTT1=
EXTT2=
EXTT3=
EXTT4=
EXTT5=
EXTT6=
EXTT7=
EXTT8=
EXTT9=
EXTT10=
EXTT11=
EXTT12=
EXTT13=
PLAYORDER=
